<svg xmlns="http://www.w3.org/2000/svg" viewBox="0 0 1720 1000" width="1720" height="1000" font-family="Helvetica, Arial, sans-serif">
<defs><marker id="a" viewBox="0 0 10 10" refX="9" refY="5" markerWidth="8" markerHeight="8" orient="auto-start-reverse"><path d="M0,0 L10,5 L0,10 z" fill="#444"/></marker><marker id="c" viewBox="0 0 10 10" refX="9" refY="5" markerWidth="8" markerHeight="8" orient="auto-start-reverse"><path d="M0,0 L10,5 L0,10 z" fill="#c55a11"/></marker></defs>
<rect width="1720" height="1000" fill="#ffffff"/>
<text x="40" y="28" font-size="16" text-anchor="start" dominant-baseline="central" fill="#333333" font-weight="bold">Hosted wallet for the workforce: components and trust zones</text>
<rect x="30" y="70" width="250" height="330" rx="8" fill="none" stroke="#999" stroke-dasharray="6 4"/>
<text x="40" y="84" font-size="12" text-anchor="start" dominant-baseline="central" fill="#555" font-weight="bold">Employee&#x27;s device</text>
<rect x="55" y="120" width="200" height="70" rx="9" fill="#e1d5e7" stroke="#9673a6" stroke-width="1.3"/>
<text x="155.0" y="147.5" font-size="12" text-anchor="middle" dominant-baseline="central" fill="#222">Browser</text><text x="155.0" y="162.5" font-size="12" text-anchor="middle" dominant-baseline="central" fill="#222">(managed desktop)</text>
<rect x="55" y="250" width="200" height="70" rx="9" fill="#fff2cc" stroke="#d6b656" stroke-width="1.3"/>
<text x="155.0" y="277.5" font-size="12" text-anchor="middle" dominant-baseline="central" fill="#222">Passkey</text><text x="155.0" y="292.5" font-size="12" text-anchor="middle" dominant-baseline="central" fill="#222">(platform authenticator)</text>
<polyline points="155.0,190 155.0,250" fill="none" stroke="#444" stroke-width="1.3" marker-end="url(#a)" stroke-dasharray="5 3"/>
<rect x="128.6" y="212.5" width="52.8" height="15" fill="#fff" opacity="0.92"/>
<text x="155.0" y="220.0" font-size="11" text-anchor="middle" dominant-baseline="central" fill="#333">confirms</text>
<rect x="310" y="60" width="1380" height="920" rx="8" fill="none" stroke="#999" stroke-dasharray="6 4"/>
<text x="320" y="74" font-size="12" text-anchor="start" dominant-baseline="central" fill="#555" font-weight="bold">The organisation&#x27;s network (one Kubernetes cluster)</text>
<rect x="330" y="100" width="860" height="600" rx="8" fill="none" stroke="#999" stroke-dasharray="6 4"/>
<text x="340" y="114" font-size="12" text-anchor="start" dominant-baseline="central" fill="#555" font-weight="bold">Wallet zone</text>
<rect x="350" y="150" width="210" height="80" rx="9" fill="#dae8fc" stroke="#6c8ebf" stroke-width="1.3"/>
<text x="455.0" y="175.0" font-size="12" text-anchor="middle" dominant-baseline="central" fill="#222">Wallet UI</text><text x="455.0" y="190.0" font-size="12" text-anchor="middle" dominant-baseline="central" fill="#222">(web app, signed in</text><text x="455.0" y="205.0" font-size="12" text-anchor="middle" dominant-baseline="central" fill="#222">through SSO)</text>
<rect x="640" y="150" width="280" height="100" rx="9" fill="#dae8fc" stroke="#6c8ebf" stroke-width="1.3"/>
<text x="780.0" y="185.0" font-size="12" text-anchor="middle" dominant-baseline="central" fill="#222">Wallet service</text><text x="780.0" y="200.0" font-size="12" text-anchor="middle" dominant-baseline="central" fill="#222">one logical wallet per employee</text><text x="780.0" y="215.0" font-size="12" text-anchor="middle" dominant-baseline="central" fill="#222">(a tenant per employee)</text>
<rect x="350" y="320" width="220" height="90" rx="9" fill="#ffffff" stroke="#b85450" stroke-width="1.3" stroke-dasharray="5 3"/>
<text x="460.0" y="350.0" font-size="12" text-anchor="middle" dominant-baseline="central" fill="#222">Approval gate</text><text x="460.0" y="365.0" font-size="12" text-anchor="middle" dominant-baseline="central" fill="#222">checks the passkey answer</text><text x="460.0" y="380.0" font-size="12" text-anchor="middle" dominant-baseline="central" fill="#222">before any signing</text>
<rect x="350" y="480" width="220" height="90" rx="9" fill="#fff2cc" stroke="#d6b656" stroke-width="1.3"/>
<text x="460.0" y="510.0" font-size="12" text-anchor="middle" dominant-baseline="central" fill="#222">KMS / HSM</text><text x="460.0" y="525.0" font-size="12" text-anchor="middle" dominant-baseline="central" fill="#222">holder keys per employee,</text><text x="460.0" y="540.0" font-size="12" text-anchor="middle" dominant-baseline="central" fill="#222">non-exportable</text>
<rect x="640" y="320" width="260" height="90" rx="9" fill="#dae8fc" stroke="#6c8ebf" stroke-width="1.3"/>
<text x="770.0" y="350.0" font-size="12" text-anchor="middle" dominant-baseline="central" fill="#222">Tenant store</text><text x="770.0" y="365.0" font-size="12" text-anchor="middle" dominant-baseline="central" fill="#222">credentials and consent history,</text><text x="770.0" y="380.0" font-size="12" text-anchor="middle" dominant-baseline="central" fill="#222">encrypted per tenant</text>
<rect x="640" y="450" width="260" height="70" rx="9" fill="#dae8fc" stroke="#6c8ebf" stroke-width="1.3"/>
<text x="770.0" y="477.5" font-size="12" text-anchor="middle" dominant-baseline="central" fill="#222">Verifier registry</text><text x="770.0" y="492.5" font-size="12" text-anchor="middle" dominant-baseline="central" fill="#222">the apps the wallet may present to</text>
<rect x="640" y="560" width="260" height="70" rx="9" fill="#dae8fc" stroke="#6c8ebf" stroke-width="1.3"/>
<text x="770.0" y="587.5" font-size="12" text-anchor="middle" dominant-baseline="central" fill="#222">Audit log</text><text x="770.0" y="602.5" font-size="12" text-anchor="middle" dominant-baseline="central" fill="#222">issuance, consent, presentations</text>
<text x="925" y="466" font-size="11" text-anchor="start" dominant-baseline="central" fill="#666666">Used by the wallet service</text><text x="925" y="480" font-size="11" text-anchor="start" dominant-baseline="central" fill="#666666">on every presentation</text><text x="925" y="494" font-size="11" text-anchor="start" dominant-baseline="central" fill="#666666">(see page 4)</text>
<rect x="1250" y="100" width="420" height="330" rx="8" fill="none" stroke="#999" stroke-dasharray="6 4"/>
<text x="1260" y="114" font-size="12" text-anchor="start" dominant-baseline="central" fill="#555" font-weight="bold">Identity and HR</text>
<rect x="1270" y="150" width="160" height="80" rx="9" fill="#fff2cc" stroke="#d6b656" stroke-width="1.3"/>
<text x="1350.0" y="182.5" font-size="12" text-anchor="middle" dominant-baseline="central" fill="#222">Identity provider</text><text x="1350.0" y="197.5" font-size="12" text-anchor="middle" dominant-baseline="central" fill="#222">(OIDC, SSO)</text>
<rect x="1480" y="150" width="170" height="80" rx="9" fill="#f5f5f5" stroke="#666666" stroke-width="1.3"/>
<text x="1565.0" y="182.5" font-size="12" text-anchor="middle" dominant-baseline="central" fill="#222">HR system</text><text x="1565.0" y="197.5" font-size="12" text-anchor="middle" dominant-baseline="central" fill="#222">joiner, mover, leaver</text>
<rect x="1270" y="300" width="380" height="90" rx="9" fill="#f5f5f5" stroke="#666666" stroke-width="1.3"/>
<text x="1460.0" y="330.0" font-size="12" text-anchor="middle" dominant-baseline="central" fill="#222">Issuer</text><text x="1460.0" y="345.0" font-size="12" text-anchor="middle" dominant-baseline="central" fill="#222">issues the Employee credential</text><text x="1460.0" y="360.0" font-size="12" text-anchor="middle" dominant-baseline="central" fill="#222">from HR data (OpenID4VCI)</text>
<rect x="1250" y="460" width="420" height="240" rx="8" fill="none" stroke="#999" stroke-dasharray="6 4"/>
<text x="1260" y="474" font-size="12" text-anchor="start" dominant-baseline="central" fill="#555" font-weight="bold">Application zone (one per app)</text>
<rect x="1270" y="500" width="380" height="70" rx="9" fill="#d5e8d4" stroke="#82b366" stroke-width="1.3"/>
<text x="1460.0" y="527.5" font-size="12" text-anchor="middle" dominant-baseline="central" fill="#222">attesta (sidecar of the app)</text><text x="1460.0" y="542.5" font-size="12" text-anchor="middle" dominant-baseline="central" fill="#222">verifies, applies the policy</text>
<rect x="1270" y="610" width="380" height="70" rx="9" fill="#f5f5f5" stroke="#666666" stroke-width="1.3"/>
<text x="1460.0" y="645.0" font-size="12" text-anchor="middle" dominant-baseline="central" fill="#222">laadpalen page and backend</text>
<polyline points="155.0,120 155,86 1398,86 1398.0,150" fill="none" stroke="#444" stroke-width="1.3" marker-end="url(#a)"/>
<rect x="730.5" y="78.5" width="92.0" height="15" fill="#fff" opacity="0.92"/>
<text x="776.5" y="86.0" font-size="11" text-anchor="middle" dominant-baseline="central" fill="#333">signs in (OIDC)</text>
<polyline points="255,141.0 350,190.0" fill="none" stroke="#444" stroke-width="1.3" marker-end="url(#a)"/>
<rect x="256.5" y="148.0" width="92.0" height="15" fill="#fff" opacity="0.92"/>
<text x="302.5" y="155.5" font-size="11" text-anchor="middle" dominant-baseline="central" fill="#333">uses the wallet</text>
<polyline points="255,176.0 295,176 295,745 1230,745 1230,645 1270,645.0" fill="none" stroke="#444" stroke-width="1.3" marker-end="url(#a)"/>
<rect x="724.9" y="737.5" width="75.19999999999999" height="15" fill="#fff" opacity="0.92"/>
<text x="762.5" y="745.0" font-size="11" text-anchor="middle" dominant-baseline="central" fill="#333">uses the app</text>
<polyline points="560,190.0 640,200.0" fill="none" stroke="#444" stroke-width="1.3" marker-end="url(#a)"/>
<rect x="587.6" y="187.5" width="24.799999999999997" height="15" fill="#fff" opacity="0.92"/>
<text x="600.0" y="195.0" font-size="11" text-anchor="middle" dominant-baseline="central" fill="#333">API</text>
<polyline points="780.0,250 770.0,320" fill="none" stroke="#444" stroke-width="1.3" marker-end="url(#a)"/>
<rect x="734.6" y="277.5" width="80.8" height="15" fill="#fff" opacity="0.92"/>
<text x="775.0" y="285.0" font-size="11" text-anchor="middle" dominant-baseline="central" fill="#333">reads, writes</text>
<polyline points="668.0,250 526.0,320" fill="none" stroke="#444" stroke-width="1.3" marker-end="url(#a)"/>
<rect x="559.4" y="277.5" width="75.19999999999999" height="15" fill="#fff" opacity="0.92"/>
<text x="597.0" y="285.0" font-size="11" text-anchor="middle" dominant-baseline="central" fill="#333">asks to sign</text>
<polyline points="460.0,410 460.0,480" fill="none" stroke="#444" stroke-width="1.3" marker-end="url(#a)"/>
<rect x="442.0" y="437.5" width="36.0" height="15" fill="#fff" opacity="0.92"/>
<text x="460.0" y="445.0" font-size="11" text-anchor="middle" dominant-baseline="central" fill="#333">signs</text>
<polyline points="920,180.0 1215,180 1215,345 1270,345.0" fill="none" stroke="#444" stroke-width="1.3" marker-end="url(#a)"/>
<rect x="982.3" y="172.5" width="170.39999999999998" height="15" fill="#fff" opacity="0.92"/>
<text x="1067.5" y="180.0" font-size="11" text-anchor="middle" dominant-baseline="central" fill="#333">gets credentials (OpenID4VCI)</text>
<polyline points="920,220.0 1195,220 1195,535 1270,535.0" fill="none" stroke="#444" stroke-width="1.3" marker-end="url(#a)"/>
<rect x="1157.4" y="370.0" width="75.19999999999999" height="15" fill="#fff" opacity="0.92"/>
<text x="1195.0" y="377.5" font-size="11" text-anchor="middle" dominant-baseline="central" fill="#333">presentation</text>
<polyline points="1346.0,300 1318.0,230" fill="none" stroke="#444" stroke-width="1.3" marker-end="url(#a)"/>
<rect x="1291.6" y="250.0" width="80.8" height="30" fill="#fff" opacity="0.92"/>
<text x="1332.0" y="258.0" font-size="11" text-anchor="middle" dominant-baseline="central" fill="#333">authenticates</text><text x="1332.0" y="272.0" font-size="11" text-anchor="middle" dominant-baseline="central" fill="#333">the employee</text>
<polyline points="1565.0,230 1593.0,300" fill="none" stroke="#444" stroke-width="1.3" marker-end="url(#a)"/>
<rect x="1547.0" y="257.5" width="64.0" height="15" fill="#fff" opacity="0.92"/>
<text x="1579.0" y="265.0" font-size="11" text-anchor="middle" dominant-baseline="central" fill="#333">attributes</text>
<polyline points="1460.0,610 1460.0,570" fill="none" stroke="#444" stroke-width="1.3" marker-end="url(#a)"/>
<rect x="1416.8" y="575.0" width="86.39999999999999" height="30" fill="#fff" opacity="0.92"/>
<text x="1460.0" y="583.0" font-size="11" text-anchor="middle" dominant-baseline="central" fill="#333">start request,</text><text x="1460.0" y="597.0" font-size="11" text-anchor="middle" dominant-baseline="central" fill="#333">read outcome</text>
<rect x="40" y="780" width="28" height="16" rx="4" fill="#dae8fc" stroke="#6c8ebf"/>
<text x="78" y="788" font-size="11" dominant-baseline="central" fill="#333">to build</text>
<rect x="40" y="806" width="28" height="16" rx="4" fill="#f5f5f5" stroke="#666666"/>
<text x="78" y="814" font-size="11" dominant-baseline="central" fill="#333">exists, or belongs to the organisation already</text>
<rect x="40" y="832" width="28" height="16" rx="4" fill="#d5e8d4" stroke="#82b366"/>
<text x="78" y="840" font-size="11" dominant-baseline="central" fill="#333">attesta</text>
<rect x="40" y="858" width="28" height="16" rx="4" fill="#fff2cc" stroke="#d6b656"/>
<text x="78" y="866" font-size="11" dominant-baseline="central" fill="#333">security component</text>
<rect x="40" y="884" width="28" height="16" rx="4" fill="#ffffff" stroke="#b85450" stroke-dasharray="4 3"/>
<text x="78" y="892" font-size="11" dominant-baseline="central" fill="#333">optional hardening</text>
<rect x="40" y="910" width="28" height="16" rx="4" fill="#e1d5e7" stroke="#9673a6"/>
<text x="78" y="918" font-size="11" dominant-baseline="central" fill="#333">person</text>
</svg>